<svg xmlns="http://www.w3.org/2000/svg" width="17" height="16" fill="none"><path fill="#328C3C" d="M2.5 16c-.55 0-1.02-.196-1.413-.588A1.926 1.926 0 0 1 .5 14c0-.55.196-1.02.587-1.412A1.926 1.926 0 0 1 2.5 12c.55 0 1.02.196 1.413.588.391.391.587.862.587 1.412 0 .55-.196 1.02-.587 1.412A1.926 1.926 0 0 1 2.5 16Zm6 0c-.55 0-1.02-.196-1.412-.588A1.926 1.926 0 0 1 6.5 14c0-.55.196-1.02.588-1.412A1.926 1.926 0 0 1 8.5 12c.55 0 1.02.196 1.412.588.392.391.588.862.588 1.412 0 .55-.196 1.02-.588 1.412A1.926 1.926 0 0 1 8.5 16Zm6 0c-.55 0-1.02-.196-1.412-.588A1.926 1.926 0 0 1 12.5 14c0-.55.196-1.02.588-1.412A1.926 1.926 0 0 1 14.5 12c.55 0 1.02.196 1.412.588.392.391.588.862.588 1.412 0 .55-.196 1.02-.588 1.412A1.926 1.926 0 0 1 14.5 16Zm-12-6c-.55 0-1.02-.196-1.413-.588A1.926 1.926 0 0 1 .5 8c0-.55.196-1.02.587-1.412A1.926 1.926 0 0 1 2.5 6c.55 0 1.02.196 1.413.588.391.391.587.862.587 1.412 0 .55-.196 1.02-.587 1.412A1.926 1.926 0 0 1 2.5 10Zm6 0c-.55 0-1.02-.196-1.412-.588A1.926 1.926 0 0 1 6.5 8c0-.55.196-1.02.588-1.412A1.926 1.926 0 0 1 8.5 6c.55 0 1.02.196 1.412.588.392.391.588.862.588 1.412 0 .55-.196 1.02-.588 1.412A1.926 1.926 0 0 1 8.5 10Zm6 0c-.55 0-1.02-.196-1.412-.588A1.926 1.926 0 0 1 12.5 8c0-.55.196-1.02.588-1.412A1.926 1.926 0 0 1 14.5 6c.55 0 1.02.196 1.412.588.392.391.588.862.588 1.412 0 .55-.196 1.02-.588 1.412A1.926 1.926 0 0 1 14.5 10Zm-12-6c-.55 0-1.02-.196-1.413-.587A1.926 1.926 0 0 1 .5 2c0-.55.196-1.02.587-1.413A1.926 1.926 0 0 1 2.5 0c.55 0 1.02.196 1.413.588C4.303.979 4.5 1.45 4.5 2c0 .55-.196 1.02-.587 1.413A1.926 1.926 0 0 1 2.5 4Zm6 0c-.55 0-1.02-.196-1.412-.587A1.926 1.926 0 0 1 6.5 2c0-.55.196-1.02.588-1.413A1.926 1.926 0 0 1 8.5 0c.55 0 1.02.196 1.412.588.392.391.588.862.588 1.412 0 .55-.196 1.02-.588 1.413A1.926 1.926 0 0 1 8.5 4Zm6 0c-.55 0-1.02-.196-1.412-.587A1.926 1.926 0 0 1 12.5 2c0-.55.196-1.02.588-1.413A1.926 1.926 0 0 1 14.5 0c.55 0 1.02.196 1.412.588.392.391.588.862.588 1.412 0 .55-.196 1.02-.588 1.413A1.926 1.926 0 0 1 14.5 4Z"/></svg>