<svg xmlns="http://www.w3.org/2000/svg" width="29" height="28" fill="none"><g fill="#323232" clip-path="url(#a)"><path d="M20.069.014c-.06-.066-2.204.026-4.07 2.051-1.865 2.023-1.578 4.344-1.536 4.403.042.06 2.66.152 4.332-2.201 1.67-2.354 1.333-4.185 1.274-4.253Zm5.8 20.533c-.085-.168-4.07-2.16-3.699-5.989.371-3.83 2.932-4.88 2.972-4.994.04-.114-1.045-1.383-2.195-2.025a6.461 6.461 0 0 0-2.735-.76c-.189-.005-.845-.166-2.194.204-.89.243-2.893 1.03-3.444 1.062-.553.031-2.198-.914-3.968-1.164-1.132-.219-2.332.23-3.192.574-.857.343-2.488 1.32-3.63 3.915-1.14 2.593-.543 6.702-.116 7.98.427 1.275 1.093 3.367 2.227 4.893C6.903 25.965 8.24 27.16 8.8 27.566c.558.406 2.133.675 3.225.117.878-.539 2.464-.849 3.09-.826.625.023 1.857.27 3.119.944 1 .344 1.944.2 2.89-.184.948-.387 2.318-1.854 3.917-4.827.608-1.382.884-2.13.828-2.243Z"/><path d="M20.069.014c-.06-.066-2.204.026-4.07 2.051-1.865 2.023-1.578 4.344-1.536 4.403.042.06 2.66.152 4.332-2.201 1.67-2.354 1.333-4.185 1.274-4.253Zm5.8 20.533c-.085-.168-4.07-2.16-3.699-5.989.371-3.83 2.932-4.88 2.972-4.994.04-.114-1.045-1.383-2.195-2.025a6.461 6.461 0 0 0-2.735-.76c-.189-.005-.845-.166-2.194.204-.89.243-2.893 1.03-3.444 1.062-.553.031-2.198-.914-3.968-1.164-1.132-.219-2.332.23-3.192.574-.857.343-2.488 1.32-3.63 3.915-1.14 2.593-.543 6.702-.116 7.98.427 1.275 1.093 3.367 2.227 4.893C6.903 25.965 8.24 27.16 8.8 27.566c.558.406 2.133.675 3.225.117.878-.539 2.464-.849 3.09-.826.625.023 1.857.27 3.119.944 1 .344 1.944.2 2.89-.184.948-.387 2.318-1.854 3.917-4.827.608-1.382.884-2.13.828-2.243Z"/></g><defs><clipPath id="a"><path fill="#fff" d="M.5 0h28v28H.5z"/></clipPath></defs></svg>