
<svg width="22" height="21" viewBox="0 0 22 21" fill="none" xmlns="http://www.w3.org/2000/svg">
<mask id="mask0_604_1232" style="mask-type:luminance" maskUnits="userSpaceOnUse" x="0" y="0" width="22" height="21">
<path d="M0.666748 -0.000156403H21.5067V20.8398H0.666748V-0.000156403Z" fill="white"/>
</mask>
<g mask="url(#mask0_604_1232)">
<path d="M20.7945 6.95981H1.37908C1.15427 6.95981 0.972046 7.14208 0.972046 7.36684V20.1276C0.972046 20.3524 1.15427 20.5347 1.37908 20.5347H10.3084C10.4868 20.2998 10.769 20.148 11.0868 20.148C11.4045 20.148 11.6867 20.2998 11.8651 20.5347H20.7945C21.0193 20.5347 21.2015 20.3524 21.2015 20.1276V7.36684C21.2015 7.14208 21.0193 6.95981 20.7945 6.95981Z" fill="#6E9EFF"/>
<path d="M20.7945 6.95981H19.1664C19.3912 6.95981 19.5734 7.14208 19.5734 7.36684V20.1276C19.5734 20.3524 19.3912 20.5347 19.1664 20.5347H20.7945C21.0193 20.5347 21.2015 20.3524 21.2015 20.1276V7.36684C21.2015 7.14208 21.0193 6.95981 20.7945 6.95981Z" fill="#5990FF"/>
<path d="M19.8726 19.27H2.3009V8.87371H19.8726V19.27Z" fill="#8CB1D0"/>
<path d="M11.0868 6.58204V19.1377C11.0868 19.1377 7.77547 16.3977 2.3009 18.3236V6.58204C2.3009 6.58204 6.71589 4.50663 11.0868 6.58204Z" fill="#BBDCF5"/>
<path d="M11.0868 6.78218C11.0868 6.78218 9.17981 2.50558 4.33606 1.49078V13.8463C9.17981 14.8611 11.0868 19.1377 11.0868 19.1377V6.78218Z" fill="white"/>
<path d="M11.0871 6.78218C11.0871 6.78218 11.215 1.32047 6.37122 0.305664V12.6612C11.215 13.676 11.0871 19.1377 11.0871 19.1377V6.78218Z" fill="#BBDCF5"/>
<path d="M11.0868 6.58204V19.1377C11.0868 19.1377 14.3981 16.3977 19.8726 18.3236V6.58204C19.8726 6.58204 15.4577 4.50663 11.0868 6.58204Z" fill="#BBDCF5"/>
<path d="M11.0874 6.78218C11.0874 6.78218 13.7463 3.93296 18.6522 3.93296V16.2885C13.7463 16.2885 11.0874 19.1377 11.0874 19.1377V6.78218Z" fill="white"/>
</g>
</svg>
