<svg width="25" height="24" viewBox="0 0 25 24" fill="none" xmlns="http://www.w3.org/2000/svg">
<g id="vuesax/bold/element-3">
<g id="element-3">
<path id="Vector" d="M22.625 8.52V3.98C22.625 2.57 21.985 2 20.395 2H16.355C14.765 2 14.125 2.57 14.125 3.98V8.51C14.125 9.93 14.765 10.49 16.355 10.49H20.395C21.985 10.5 22.625 9.93 22.625 8.52Z" fill="#86898E"/>
<path id="Vector_2" d="M22.625 19.77V15.73C22.625 14.14 21.985 13.5 20.395 13.5H16.355C14.765 13.5 14.125 14.14 14.125 15.73V19.77C14.125 21.36 14.765 22 16.355 22H20.395C21.985 22 22.625 21.36 22.625 19.77Z" fill="#86898E"/>
<path id="Vector_3" d="M11.125 8.52V3.98C11.125 2.57 10.485 2 8.895 2H4.855C3.265 2 2.625 2.57 2.625 3.98V8.51C2.625 9.93 3.265 10.49 4.855 10.49H8.895C10.485 10.5 11.125 9.93 11.125 8.52Z" fill="#86898E"/>
<path id="Vector_4" d="M11.125 19.77V15.73C11.125 14.14 10.485 13.5 8.895 13.5H4.855C3.265 13.5 2.625 14.14 2.625 15.73V19.77C2.625 21.36 3.265 22 4.855 22H8.895C10.485 22 11.125 21.36 11.125 19.77Z" fill="#86898E"/>
</g>
</g>
</svg>
