<svg width="157" height="156" viewBox="0 0 157 156" fill="none" xmlns="http://www.w3.org/2000/svg">
<g clip-path="url(#clip0_265_960)">
<path d="M32.61 24.0496C32.61 22.217 31.882 20.4594 30.5861 19.1635C29.2903 17.8677 27.5327 17.1396 25.7 17.1396C23.8674 17.1396 22.1098 17.8677 20.8139 19.1635C19.5181 20.4594 18.79 22.217 18.79 24.0496C18.79 25.8823 19.5181 27.6399 20.8139 28.9358C22.1098 30.2316 23.8674 30.9596 25.7 30.9596C27.5327 30.9596 29.2903 30.2316 30.5861 28.9358C31.882 27.6399 32.61 25.8823 32.61 24.0496Z" stroke="#328C3C" stroke-width="2"/>
<path d="M87.23 20.21C87.23 19.8121 87.0719 19.4306 86.7906 19.1493C86.5093 18.868 86.1278 18.71 85.73 18.71C85.3322 18.71 84.9506 18.868 84.6693 19.1493C84.388 19.4306 84.23 19.8121 84.23 20.21C84.23 20.6078 84.388 20.9893 84.6693 21.2706C84.9506 21.5519 85.3322 21.71 85.73 21.71C86.1278 21.71 86.5093 21.5519 86.7906 21.2706C87.0719 20.9893 87.23 20.6078 87.23 20.21Z" stroke="#328C3C" stroke-width="2"/>
<path d="M126.94 79.8893C126.94 66.9308 121.792 54.5031 112.629 45.3401C103.466 36.177 91.0384 31.0293 78.08 31.0293C65.1215 31.0293 52.6938 36.177 43.5307 45.3401C34.3677 54.5031 29.22 66.9308 29.22 79.8893C29.22 92.8478 34.3677 105.276 43.5307 114.439C52.6938 123.602 65.1215 128.749 78.08 128.749C91.0384 128.749 103.466 123.602 112.629 114.439C121.792 105.276 126.94 92.8478 126.94 79.8893Z" stroke="#328C3C" stroke-width="2"/>
<path d="M140.82 36.2496C140.82 34.8731 140.273 33.553 139.3 32.5797C138.327 31.6064 137.006 31.0596 135.63 31.0596C134.253 31.0596 132.933 31.6064 131.96 32.5797C130.987 33.553 130.44 34.8731 130.44 36.2496C130.44 37.626 130.987 38.9461 131.96 39.9195C132.933 40.8928 134.253 41.4396 135.63 41.4396C137.006 41.4396 138.327 40.8928 139.3 39.9195C140.273 38.9461 140.82 37.626 140.82 36.2496Z" stroke="#328C3C" stroke-width="2"/>
<path d="M13.36 69.1694C13.36 68.9545 13.2747 68.7485 13.1227 68.5966C12.9708 68.4447 12.7648 68.3594 12.55 68.3594C12.4436 68.3594 12.3383 68.3803 12.24 68.421C12.1417 68.4617 12.0524 68.5214 11.9772 68.5966C11.902 68.6718 11.8424 68.7611 11.8016 68.8594C11.7609 68.9577 11.74 69.063 11.74 69.1694C11.74 69.2757 11.7609 69.3811 11.8016 69.4793C11.8424 69.5776 11.902 69.6669 11.9772 69.7421C12.0524 69.8173 12.1417 69.877 12.24 69.9177C12.3383 69.9584 12.4436 69.9794 12.55 69.9794C12.7648 69.9794 12.9708 69.894 13.1227 69.7421C13.2747 69.5902 13.36 69.3842 13.36 69.1694Z" stroke="#328C3C" stroke-width="2"/>
<path d="M131.61 93.72C131.61 93.5217 131.571 93.3253 131.495 93.1421C131.419 92.9589 131.308 92.7924 131.168 92.6522C131.027 92.512 130.861 92.4008 130.678 92.3249C130.495 92.249 130.298 92.21 130.1 92.21C129.902 92.21 129.705 92.249 129.522 92.3249C129.339 92.4008 129.172 92.512 129.032 92.6522C128.892 92.7924 128.781 92.9589 128.705 93.1421C128.629 93.3253 128.59 93.5217 128.59 93.72C128.59 94.1204 128.749 94.5045 129.032 94.7877C129.315 95.0709 129.699 95.23 130.1 95.23C130.5 95.23 130.885 95.0709 131.168 94.7877C131.451 94.5045 131.61 94.1204 131.61 93.72Z" stroke="#328C3C" stroke-width="2"/>
<path d="M22.23 109.4C22.23 108.948 22.141 108.501 21.9681 108.084C21.7952 107.666 21.5419 107.287 21.2224 106.968C20.903 106.648 20.5238 106.395 20.1064 106.222C19.689 106.049 19.2417 105.96 18.79 105.96C17.8776 105.96 17.0027 106.322 16.3575 106.968C15.7124 107.613 15.35 108.488 15.35 109.4C15.35 110.312 15.7124 111.187 16.3575 111.832C17.0027 112.478 17.8776 112.84 18.79 112.84C19.2417 112.84 19.689 112.751 20.1064 112.578C20.5238 112.405 20.903 112.152 21.2224 111.832C21.5419 111.513 21.7952 111.134 21.9681 110.716C22.141 110.299 22.23 109.852 22.23 109.4Z" stroke="#328C3C" stroke-width="2"/>
<path d="M128.24 128.379C128.24 127.944 128.067 127.527 127.76 127.22C127.452 126.912 127.035 126.739 126.6 126.739C126.165 126.739 125.748 126.912 125.44 127.22C125.133 127.527 124.96 127.944 124.96 128.379C124.96 128.814 125.133 129.231 125.44 129.539C125.748 129.846 126.165 130.019 126.6 130.019C127.035 130.019 127.452 129.846 127.76 129.539C128.067 129.231 128.24 128.814 128.24 128.379Z" stroke="#328C3C" stroke-width="2"/>
<path d="M95.85 135.719C95.8434 136.086 96.02 136.263 96.38 136.249C96.6534 136.243 96.87 136.139 97.03 135.939C97.2967 135.613 97.2467 135.346 96.88 135.139C96.6267 134.993 96.3534 134.963 96.06 135.049C95.9267 135.089 95.86 135.176 95.86 135.309L95.85 135.719Z" stroke="#328C3C" stroke-width="2"/>
<path d="M57.5099 139.47C57.5099 138.847 57.2623 138.249 56.8216 137.808C56.3809 137.368 55.7832 137.12 55.1599 137.12C54.5367 137.12 53.9389 137.368 53.4982 137.808C53.0575 138.249 52.8099 138.847 52.8099 139.47C52.8099 140.093 53.0575 140.691 53.4982 141.132C53.9389 141.573 54.5367 141.82 55.1599 141.82C55.7832 141.82 56.3809 141.573 56.8216 141.132C57.2623 140.691 57.5099 140.093 57.5099 139.47Z" stroke="#328C3C" stroke-width="2"/>
<path d="M93.75 80.5795C93.75 78.3392 93.3087 76.1208 92.4514 74.051C91.594 71.9811 90.3374 70.1005 88.7533 68.5163C87.1691 66.9321 85.2884 65.6755 83.2186 64.8181C81.1488 63.9608 78.9304 63.5195 76.69 63.5195C72.1654 63.5195 67.8261 65.3169 64.6268 68.5163C61.4274 71.7157 59.63 76.0549 59.63 80.5795C59.63 85.1041 61.4274 89.4434 64.6268 92.6428C67.8261 95.8421 72.1654 97.6395 76.69 97.6395C78.9304 97.6395 81.1488 97.1983 83.2186 96.3409C85.2884 95.4836 87.1691 94.2269 88.7533 92.6428C90.3374 91.0586 91.594 89.1779 92.4514 87.1081C93.3087 85.0383 93.75 82.8199 93.75 80.5795Z" stroke="#328C3C" stroke-width="2"/>
<path d="M72.59 83.6696L68.6 79.6596C68.3896 79.4559 68.1325 79.305 67.85 79.2196C66.37 78.8063 65.58 79.1996 65.48 80.3996C65.4615 80.6128 65.4885 80.8268 65.5593 81.027C65.63 81.2272 65.7429 81.4089 65.89 81.5596L71.8 87.6696C72.7534 88.6563 73.7134 88.663 74.68 87.6896L87.23 75.1196C87.89 74.4596 88.0467 73.6963 87.7 72.8296C87.48 72.2696 86.8234 72.0996 85.73 72.3196C85.3648 72.398 85.0314 72.5786 84.77 72.8396L73.92 83.6696C73.7412 83.8449 73.5012 83.9432 73.2521 83.9432C73.0031 83.9432 72.7651 83.8449 72.59 83.6696Z" stroke="#328C3C" stroke-width="2"/>
<path d="M-4.5 0H156.5V156H-4.5V0ZM32.61 24.05C32.61 22.2174 31.882 20.4598 30.5861 19.1639C29.2902 17.868 27.5326 17.14 25.7 17.14C23.8674 17.14 22.1098 17.868 20.8139 19.1639C19.518 20.4598 18.79 22.2174 18.79 24.05C18.79 25.8826 19.518 27.6402 20.8139 28.9361C22.1098 30.232 23.8674 30.96 25.7 30.96C27.5326 30.96 29.2902 30.232 30.5861 28.9361C31.882 27.6402 32.61 25.8826 32.61 24.05ZM87.23 20.21C87.23 19.8122 87.072 19.4306 86.7907 19.1493C86.5094 18.868 86.1278 18.71 85.73 18.71C85.3322 18.71 84.9506 18.868 84.6693 19.1493C84.388 19.4306 84.23 19.8122 84.23 20.21C84.23 20.6078 84.388 20.9894 84.6693 21.2707C84.9506 21.552 85.3322 21.71 85.73 21.71C86.1278 21.71 86.5094 21.552 86.7907 21.2707C87.072 20.9894 87.23 20.6078 87.23 20.21ZM126.94 79.89C126.94 66.9315 121.792 54.5038 112.629 45.3408C103.466 36.1777 91.0385 31.03 78.08 31.03C65.1215 31.03 52.6938 36.1777 43.5308 45.3408C34.3677 54.5038 29.22 66.9315 29.22 79.89C29.22 92.8485 34.3677 105.276 43.5308 114.439C52.6938 123.602 65.1215 128.75 78.08 128.75C91.0385 128.75 103.466 123.602 112.629 114.439C121.792 105.276 126.94 92.8485 126.94 79.89ZM140.82 36.25C140.82 34.8735 140.273 33.5534 139.3 32.5801C138.327 31.6068 137.006 31.06 135.63 31.06C134.254 31.06 132.933 31.6068 131.96 32.5801C130.987 33.5534 130.44 34.8735 130.44 36.25C130.44 37.6265 130.987 38.9466 131.96 39.9199C132.933 40.8932 134.254 41.44 135.63 41.44C137.006 41.44 138.327 40.8932 139.3 39.9199C140.273 38.9466 140.82 37.6265 140.82 36.25ZM13.36 69.17C13.36 68.9552 13.2747 68.7491 13.1228 68.5972C12.9709 68.4453 12.7648 68.36 12.55 68.36C12.4436 68.36 12.3383 68.381 12.24 68.4217C12.1418 68.4624 12.0525 68.522 11.9772 68.5972C11.902 68.6725 11.8424 68.7617 11.8017 68.86C11.761 68.9583 11.74 69.0636 11.74 69.17C11.74 69.2764 11.761 69.3817 11.8017 69.48C11.8424 69.5782 11.902 69.6675 11.9772 69.7428C12.0525 69.818 12.1418 69.8776 12.24 69.9183C12.3383 69.959 12.4436 69.98 12.55 69.98C12.7648 69.98 12.9709 69.8947 13.1228 69.7428C13.2747 69.5909 13.36 69.3848 13.36 69.17ZM131.61 93.72C131.61 93.5217 131.571 93.3254 131.495 93.1422C131.419 92.9589 131.308 92.7925 131.168 92.6523C131.028 92.5121 130.861 92.4008 130.678 92.3249C130.495 92.2491 130.298 92.21 130.1 92.21C129.902 92.21 129.705 92.2491 129.522 92.3249C129.339 92.4008 129.172 92.5121 129.032 92.6523C128.892 92.7925 128.781 92.9589 128.705 93.1422C128.629 93.3254 128.59 93.5217 128.59 93.72C128.59 94.1205 128.749 94.5046 129.032 94.7877C129.315 95.0709 129.7 95.23 130.1 95.23C130.5 95.23 130.885 95.0709 131.168 94.7877C131.451 94.5046 131.61 94.1205 131.61 93.72ZM22.23 109.4C22.23 108.948 22.141 108.501 21.9681 108.084C21.7953 107.666 21.5419 107.287 21.2224 106.968C20.903 106.648 20.5238 106.395 20.1064 106.222C19.6891 106.049 19.2417 105.96 18.79 105.96C17.8777 105.96 17.0027 106.322 16.3576 106.968C15.7124 107.613 15.35 108.488 15.35 109.4C15.35 110.312 15.7124 111.187 16.3576 111.832C17.0027 112.478 17.8777 112.84 18.79 112.84C19.2417 112.84 19.6891 112.751 20.1064 112.578C20.5238 112.405 20.903 112.152 21.2224 111.832C21.5419 111.513 21.7953 111.134 21.9681 110.716C22.141 110.299 22.23 109.852 22.23 109.4ZM128.24 128.38C128.24 127.945 128.067 127.528 127.76 127.22C127.452 126.913 127.035 126.74 126.6 126.74C126.165 126.74 125.748 126.913 125.44 127.22C125.133 127.528 124.96 127.945 124.96 128.38C124.96 128.815 125.133 129.232 125.44 129.54C125.748 129.847 126.165 130.02 126.6 130.02C127.035 130.02 127.452 129.847 127.76 129.54C128.067 129.232 128.24 128.815 128.24 128.38ZM95.85 135.72C95.8433 136.087 96.02 136.263 96.38 136.25C96.6533 136.243 96.87 136.14 97.03 135.94C97.2967 135.613 97.2467 135.347 96.88 135.14C96.6267 134.993 96.3533 134.963 96.06 135.05C95.9267 135.09 95.86 135.177 95.86 135.31L95.85 135.72ZM57.51 139.47C57.51 138.847 57.2624 138.249 56.8217 137.808C56.381 137.368 55.7833 137.12 55.16 137.12C54.5367 137.12 53.939 137.368 53.4983 137.808C53.0576 138.249 52.81 138.847 52.81 139.47C52.81 140.093 53.0576 140.691 53.4983 141.132C53.939 141.572 54.5367 141.82 55.16 141.82C55.7833 141.82 56.381 141.572 56.8217 141.132C57.2624 140.691 57.51 140.093 57.51 139.47Z" fill="white"/>
<path d="M25.7 30.9596C29.5163 30.9596 32.61 27.8659 32.61 24.0496C32.61 20.2334 29.5163 17.1396 25.7 17.1396C21.8838 17.1396 18.79 20.2334 18.79 24.0496C18.79 27.8659 21.8838 30.9596 25.7 30.9596Z" fill="#328C3C"/>
<path d="M85.73 21.71C86.5584 21.71 87.23 21.0384 87.23 20.21C87.23 19.3815 86.5584 18.71 85.73 18.71C84.9016 18.71 84.23 19.3815 84.23 20.21C84.23 21.0384 84.9016 21.71 85.73 21.71Z" fill="#328C3C"/>
<path d="M126.94 79.8903C126.94 92.8488 121.792 105.276 112.629 114.44C103.466 123.603 91.0384 128.75 78.08 128.75C65.1215 128.75 52.6938 123.603 43.5307 114.44C34.3677 105.276 29.22 92.8488 29.22 79.8903C29.22 66.9318 34.3677 54.5041 43.5307 45.341C52.6938 36.178 65.1215 31.0303 78.08 31.0303C91.0384 31.0303 103.466 36.178 112.629 45.341C121.792 54.5041 126.94 66.9318 126.94 79.8903ZM93.75 80.5803C93.75 78.3399 93.3087 76.1215 92.4514 74.0517C91.594 71.9819 90.3374 70.1012 88.7532 68.517C87.169 66.9329 85.2884 65.6762 83.2186 64.8189C81.1487 63.9615 78.9303 63.5203 76.69 63.5203C72.1654 63.5203 67.8261 65.3177 64.6267 68.517C61.4274 71.7164 59.63 76.0557 59.63 80.5803C59.63 85.1049 61.4274 89.4441 64.6267 92.6435C67.8261 95.8429 72.1654 97.6403 76.69 97.6403C78.9303 97.6403 81.1487 97.199 83.2186 96.3417C85.2884 95.4843 87.169 94.2277 88.7532 92.6435C90.3374 91.0593 91.594 89.1787 92.4514 87.1089C93.3087 85.039 93.75 82.8206 93.75 80.5803Z" fill="#328C3C"/>
<path d="M135.63 41.4396C138.496 41.4396 140.82 39.1159 140.82 36.2496C140.82 33.3832 138.496 31.0596 135.63 31.0596C132.764 31.0596 130.44 33.3832 130.44 36.2496C130.44 39.1159 132.764 41.4396 135.63 41.4396Z" fill="#328C3C"/>
<path d="M93.75 80.5795C93.75 82.8199 93.3087 85.0383 92.4514 87.1081C91.594 89.1779 90.3374 91.0586 88.7533 92.6428C87.1691 94.2269 85.2884 95.4836 83.2186 96.3409C81.1488 97.1983 78.9304 97.6395 76.69 97.6395C72.1654 97.6395 67.8261 95.8421 64.6268 92.6428C61.4274 89.4434 59.63 85.1041 59.63 80.5795C59.63 76.0549 61.4274 71.7157 64.6268 68.5163C67.8261 65.3169 72.1654 63.5195 76.69 63.5195C78.9304 63.5195 81.1488 63.9608 83.2186 64.8181C85.2884 65.6755 87.1691 66.9321 88.7533 68.5163C90.3374 70.1005 91.594 71.9811 92.4514 74.051C93.3087 76.1208 93.75 78.3392 93.75 80.5795ZM72.59 83.6695L68.6 79.6595C68.3896 79.4558 68.1325 79.3049 67.85 79.2195C66.37 78.8062 65.58 79.1995 65.48 80.3995C65.4615 80.6127 65.4885 80.8267 65.5592 81.0269C65.63 81.2271 65.7428 81.4088 65.89 81.5595L71.8 87.6695C72.7533 88.6562 73.7133 88.6629 74.68 87.6895L87.23 75.1195C87.89 74.4595 88.0467 73.6962 87.7 72.8295C87.48 72.2695 86.8233 72.0995 85.73 72.3195C85.3647 72.3979 85.0314 72.5785 84.77 72.8395L73.92 83.6695C73.7412 83.8448 73.5012 83.9431 73.2521 83.9431C73.0031 83.9431 72.7651 83.8448 72.59 83.6695Z" fill="white"/>
<path d="M12.55 69.9804C12.9973 69.9804 13.36 69.6177 13.36 69.1703C13.36 68.723 12.9973 68.3604 12.55 68.3604C12.1026 68.3604 11.74 68.723 11.74 69.1703C11.74 69.6177 12.1026 69.9804 12.55 69.9804Z" fill="#328C3C"/>
<path d="M73.92 83.6696L84.77 72.8396C85.0314 72.5786 85.3648 72.398 85.73 72.3196C86.8234 72.0996 87.48 72.2696 87.7 72.8296C88.0467 73.6963 87.89 74.4596 87.23 75.1196L74.68 87.6896C73.7134 88.663 72.7534 88.6563 71.8 87.6696L65.89 81.5596C65.7429 81.4089 65.63 81.2272 65.5593 81.027C65.4885 80.8268 65.4615 80.6128 65.48 80.3996C65.58 79.1996 66.37 78.8063 67.85 79.2196C68.1325 79.305 68.3896 79.4559 68.6 79.6596L72.59 83.6696C72.7651 83.8449 73.0031 83.9432 73.2521 83.9432C73.5012 83.9432 73.7412 83.8449 73.92 83.6696Z" fill="#328C3C"/>
<path d="M130.1 95.23C130.934 95.23 131.61 94.5539 131.61 93.72C131.61 92.886 130.934 92.21 130.1 92.21C129.266 92.21 128.59 92.886 128.59 93.72C128.59 94.5539 129.266 95.23 130.1 95.23Z" fill="#328C3C"/>
<path d="M18.79 112.84C20.6898 112.84 22.23 111.3 22.23 109.4C22.23 107.5 20.6898 105.96 18.79 105.96C16.8901 105.96 15.35 107.5 15.35 109.4C15.35 111.3 16.8901 112.84 18.79 112.84Z" fill="#328C3C"/>
<path d="M126.6 130.02C127.506 130.02 128.24 129.286 128.24 128.38C128.24 127.474 127.506 126.74 126.6 126.74C125.694 126.74 124.96 127.474 124.96 128.38C124.96 129.286 125.694 130.02 126.6 130.02Z" fill="#328C3C"/>
<path d="M95.85 135.72L95.86 135.31C95.86 135.177 95.9267 135.09 96.06 135.05C96.3534 134.964 96.6267 134.994 96.88 135.14C97.2467 135.347 97.2967 135.614 97.03 135.94C96.87 136.14 96.6534 136.244 96.38 136.25C96.02 136.264 95.8434 136.087 95.85 135.72Z" fill="#328C3C"/>
<path d="M55.1601 141.82C56.4579 141.82 57.5101 140.768 57.5101 139.47C57.5101 138.172 56.4579 137.12 55.1601 137.12C53.8622 137.12 52.8101 138.172 52.8101 139.47C52.8101 140.768 53.8622 141.82 55.1601 141.82Z" fill="#328C3C"/>
</g>
<defs>
<clipPath id="clip0_265_960">
<rect width="156" height="156" fill="white" transform="translate(0.5)"/>
</clipPath>
</defs>
</svg>
