<svg xmlns="http://www.w3.org/2000/svg" width="24" height="24" fill="none"><mask id="a" width="24" height="24" x="0" y="0" maskUnits="userSpaceOnUse" style="mask-type:alpha"><path fill="#D9D9D9" d="M0 0h24v24H0z"/></mask><g mask="url(#a)"><path fill="#328C3C" d="M5.7 18 8 14c-1.1 0-2.042-.392-2.825-1.175C4.392 12.042 4 11.1 4 10s.392-2.042 1.175-2.825C5.958 6.392 6.9 6 8 6s2.042.392 2.825 1.175C11.608 7.958 12 8.9 12 10c0 .383-.046.738-.137 1.063a3.74 3.74 0 0 1-.413.937L8 18H5.7Zm9 0 2.3-4c-1.1 0-2.042-.392-2.825-1.175C13.392 12.042 13 11.1 13 10s.392-2.042 1.175-2.825C14.958 6.392 15.9 6 17 6s2.042.392 2.825 1.175C20.608 7.958 21 8.9 21 10c0 .383-.046.738-.137 1.063a3.74 3.74 0 0 1-.413.937L17 18h-2.3Z"/></g></svg>