<svg width="29" height="28" viewBox="0 0 29 28" fill="none" xmlns="http://www.w3.org/2000/svg">
<g id="Google ">
<g id="Vector">
<path d="M28.2277 11.2581H27.1V11.2H14.5V16.8H22.4121C21.2578 20.0599 18.1561 22.4 14.5 22.4C9.8611 22.4 6.1 18.6389 6.1 14C6.1 9.3611 9.8611 5.6 14.5 5.6C16.6413 5.6 18.5894 6.4078 20.0727 7.7273L24.0326 3.7674C21.5322 1.4371 18.1876 0 14.5 0C6.7685 0 0.5 6.2685 0.5 14C0.5 21.7315 6.7685 28 14.5 28C22.2315 28 28.5 21.7315 28.5 14C28.5 13.0613 28.4034 12.145 28.2277 11.2581Z" fill="#FFC107"/>
<path d="M2.1142 7.4837L6.7139 10.857C7.9585 7.7756 10.9727 5.6 14.5 5.6C16.6413 5.6 18.5894 6.4078 20.0727 7.7273L24.0326 3.7674C21.5322 1.4371 18.1876 0 14.5 0C9.1226 0 4.4592 3.0359 2.1142 7.4837Z" fill="#FF3D00"/>
<path d="M14.5 28C18.1162 28 21.402 26.6161 23.8863 24.3656L19.5533 20.699C18.1005 21.8039 16.3252 22.4014 14.5 22.4C10.8586 22.4 7.7667 20.0781 6.6019 16.8378L2.0365 20.3553C4.3535 24.8892 9.0589 28 14.5 28Z" fill="#4CAF50"/>
<path d="M28.2277 11.2581H27.1V11.2H14.5V16.8H22.4121C21.8599 18.3515 20.8653 19.7072 19.5512 20.6997L19.5533 20.699L23.8863 24.3656C23.5797 24.6442 28.5 21 28.5 14C28.5 13.0613 28.4034 12.145 28.2277 11.2581Z" fill="#1976D2"/>
</g>
</g>
</svg>
