<svg width="21" height="21" viewBox="0 0 21 21" fill="none" xmlns="http://www.w3.org/2000/svg">
<mask id="mask0_604_1181" style="mask-type:luminance" maskUnits="userSpaceOnUse" x="0" y="0" width="21" height="21">
<path d="M0 -0.000156403H20.84V20.8398H0V-0.000156403Z" fill="white"/>
</mask>
<g mask="url(#mask0_604_1181)">
<path d="M19.8441 3.88837L19.8542 3.88499C19.9275 3.86081 19.9275 3.7571 19.8542 3.73292L19.844 3.72954C19.6301 3.65895 19.4358 3.53923 19.2765 3.37997C19.1173 3.22071 18.9976 3.02634 18.927 2.81246L18.9236 2.80229C18.8994 2.72898 18.7958 2.72906 18.7716 2.80233L18.7682 2.81254C18.6976 3.02641 18.5779 3.22075 18.4187 3.38C18.2594 3.53925 18.0651 3.65896 17.8512 3.72954L17.841 3.73292C17.7677 3.7571 17.7677 3.86081 17.841 3.88499L17.8512 3.88837C18.0651 3.95896 18.2594 4.0787 18.4187 4.23797C18.5779 4.39723 18.6977 4.59161 18.7682 4.80549L18.7716 4.81567C18.7958 4.88897 18.8995 4.88889 18.9236 4.81559L18.927 4.80541C18.9976 4.59153 19.1173 4.39718 19.2766 4.23792C19.4358 4.07867 19.6302 3.95895 19.8441 3.88837Z" fill="#FEE8C7"/>
<path d="M11.5619 4.17969L10.6448 2.02035C10.5606 1.82204 10.2795 1.82204 10.1952 2.02035L9.2782 4.17969H11.5619Z" fill="#02905D"/>
<path d="M9.7875 3.66866L8.50087 2.98179C8.33228 2.89184 8.14382 3.06283 8.21705 3.23936L9.19079 5.58594H11.6493L12.623 3.23936C12.6963 3.06283 12.5078 2.89184 12.3392 2.98179L11.0526 3.66866C10.8579 3.77256 10.6407 3.82691 10.42 3.82691C10.1994 3.82691 9.98215 3.77256 9.7875 3.66866Z" fill="#B3E59F"/>
<path d="M12.2729 13.5298H8.56709C7.30823 13.5298 6.28772 12.5093 6.28772 11.2504V7.17163C6.28772 5.91277 7.30823 4.89226 8.56709 4.89226H12.2729C13.5318 4.89226 14.5523 5.91277 14.5523 7.17163V11.2504C14.5523 12.5093 13.5318 13.5298 12.2729 13.5298Z" fill="#FFC269"/>
<path d="M7.11806 11.2504V7.17163C7.11806 5.91277 8.13857 4.89226 9.39744 4.89226H8.56709C7.30823 4.89226 6.28772 5.91277 6.28772 7.17163V11.2504C6.28772 12.5093 7.30823 13.5298 8.56709 13.5298H9.39744C8.13857 13.5298 7.11806 12.5093 7.11806 11.2504Z" fill="#FFA95F"/>
<path d="M16.4378 6.72604L15.9131 6.28633L16.4378 5.84665C16.8915 5.4664 17.5526 5.4664 18.0064 5.84665L18.3449 6.13035C18.442 6.21168 18.442 6.36098 18.3449 6.44234L18.0064 6.72604C17.5526 7.10629 16.8915 7.10629 16.4378 6.72604Z" fill="#B3E59F"/>
<path d="M19.1328 11.184C19.1328 12.9623 17.6913 14.4038 15.913 14.4038C14.1348 14.4038 12.6932 12.9623 12.6932 11.184C12.6932 9.40579 14.1348 7.96425 15.913 7.96425C17.6913 7.96425 19.1328 9.40579 19.1328 11.184Z" fill="#B3E59F"/>
<path d="M13.6896 11.184C13.6896 9.57524 14.8696 8.24225 16.4112 8.00275C16.2489 7.97752 16.0825 7.96425 15.9131 7.96425C14.1348 7.96425 12.6932 9.40579 12.6932 11.184C12.6932 12.9623 14.1348 14.4038 15.9131 14.4038C16.0825 14.4038 16.2489 14.3905 16.4112 14.3653C14.8696 14.1258 13.6896 12.7928 13.6896 11.184Z" fill="#95D6A4"/>
<path d="M7.03912 13.195L8.38603 10.2304C8.51057 9.95621 8.55071 9.65118 8.50134 9.35412C8.35554 8.47745 7.49076 7.91331 6.62965 8.13319L5.48984 8.42426C5.24359 8.48714 4.98548 8.48714 4.73923 8.42426L3.59934 8.13319C2.73826 7.91331 1.87345 8.47745 1.72769 9.35412C1.67831 9.65118 1.71845 9.95621 1.843 10.2304L3.18991 13.195C3.31039 13.4602 3.5047 13.6851 3.74961 13.8429C3.99451 14.0006 4.27966 14.0845 4.57096 14.0845H5.65806C5.94937 14.0845 6.23451 14.0006 6.47942 13.8429C6.72432 13.6851 6.91863 13.4602 7.03912 13.195Z" fill="#E5646E"/>
<path d="M4.00583 13.195L2.65892 10.2304C2.53436 9.95622 2.49423 9.6512 2.54365 9.35416C2.64402 8.75029 3.08561 8.29478 3.63209 8.14157L3.59937 8.13323C2.73825 7.91335 1.87347 8.47746 1.72771 9.35416C1.6783 9.6512 1.71843 9.95622 1.84299 10.2304L3.18993 13.195C3.31042 13.4602 3.50473 13.6851 3.74962 13.8429C3.99452 14.0006 4.27966 14.0845 4.57095 14.0845H5.38688C5.09558 14.0845 4.81045 14.0006 4.56554 13.8429C4.32064 13.6851 4.12632 13.4602 4.00583 13.195Z" fill="#DB4655"/>
<path d="M4.58982 6.72604L5.11452 6.28633L4.58982 5.84665C4.1361 5.4664 3.47496 5.4664 3.0212 5.84665L2.68264 6.13035C2.5856 6.21168 2.5856 6.36098 2.68268 6.44234L3.0212 6.72604C3.47496 7.10629 4.1361 7.10629 4.58982 6.72604Z" fill="#B3E59F"/>
<path d="M19.3087 20.5347H1.53118C1.30637 20.5347 1.12415 20.3524 1.12415 20.1276V13.53H19.7157V20.1276C19.7157 20.3524 19.5335 20.5347 19.3087 20.5347Z" fill="#F4DBB3"/>
<path d="M2.15963 20.1276V13.53H1.12415V20.1276C1.12415 20.3524 1.30637 20.5347 1.53118 20.5347H2.56666C2.34186 20.5347 2.15963 20.3524 2.15963 20.1276Z" fill="#EAC89F"/>
<path d="M20.1277 14.2588H0.712329C0.487526 14.2588 0.305298 14.0765 0.305298 13.8518V12.5443C0.305298 12.3195 0.487526 12.1373 0.712329 12.1373H20.1277C20.3525 12.1373 20.5347 12.3195 20.5347 12.5443V13.8518C20.5347 14.0765 20.3525 14.2588 20.1277 14.2588Z" fill="#D2AF8C"/>
<path d="M1.53616 13.8518V12.5443C1.53616 12.3195 1.71839 12.1373 1.94319 12.1373H0.712329C0.487526 12.1373 0.305298 12.3195 0.305298 12.5443V13.8518C0.305298 14.0765 0.487526 14.2588 0.712329 14.2588H1.94319C1.71839 14.2588 1.53616 14.0765 1.53616 13.8518Z" fill="#C69B75"/>
<path d="M11.634 17.6118H9.20617C8.72091 17.6118 8.32751 17.2184 8.32751 16.7332C8.32751 16.2479 8.72091 15.8545 9.20617 15.8545H11.634C12.1193 15.8545 12.5127 16.2479 12.5127 16.7332C12.5127 17.2184 12.1193 17.6118 11.634 17.6118Z" fill="#D2AF8C"/>
<path d="M4.66776 2.40202L4.67794 2.39869C4.75124 2.37447 4.75124 2.2708 4.67794 2.24662L4.66772 2.24324C4.45384 2.17264 4.25948 2.05291 4.10023 1.89364C3.94097 1.73437 3.82126 1.54 3.75068 1.32612L3.74734 1.31594C3.72312 1.24264 3.61949 1.24272 3.59528 1.31602L3.5919 1.32624C3.52133 1.5401 3.40162 1.73445 3.24238 1.8937C3.08314 2.05295 2.8888 2.17266 2.67494 2.24324L2.66472 2.24662C2.59141 2.2708 2.59141 2.37447 2.66472 2.39869L2.67494 2.40202C2.89053 2.47319 3.08627 2.59428 3.24621 2.75542C3.40615 2.91656 3.52576 3.1132 3.59532 3.32932C3.61949 3.40263 3.72317 3.40259 3.74734 3.32924L3.75072 3.31911C3.8213 3.10523 3.94102 2.91086 4.10027 2.7516C4.25953 2.59234 4.45389 2.47261 4.66776 2.40202Z" fill="#FEE8C7"/>
<path d="M16.6274 1.95968L16.6421 1.9548C16.7484 1.91971 16.7484 1.76931 16.6421 1.73423L16.6273 1.72934C16.3171 1.62695 16.0352 1.4533 15.8042 1.22231C15.5733 0.991316 15.3996 0.709413 15.2973 0.399207L15.2924 0.384432C15.2573 0.278115 15.107 0.278237 15.0719 0.384554L15.067 0.399369C14.9646 0.709549 14.791 0.991424 14.56 1.22239C14.3291 1.45335 14.0472 1.62698 13.737 1.72934L13.7222 1.73423C13.6159 1.76931 13.6159 1.91971 13.7222 1.9548L13.737 1.95968C14.0472 2.06208 14.3291 2.23574 14.5601 2.46673C14.791 2.69772 14.9647 2.97962 15.0671 3.28982L15.0719 3.3046C15.107 3.41091 15.2574 3.41079 15.2924 3.30451L15.2973 3.28974C15.3997 2.97954 15.5733 2.69764 15.8043 2.46666C16.0353 2.23568 16.3172 2.06205 16.6274 1.95968Z" fill="#FEE8C7"/>
</g>
</svg>
