<svg width="25" height="24" viewBox="0 0 25 24" fill="none" xmlns="http://www.w3.org/2000/svg">
<g id="vuesax/bold/home-2">
<g id="home-2">
<path id="Vector" d="M20.915 6.82018L15.155 2.79018C13.585 1.69018 11.175 1.75018 9.66499 2.92018L4.65499 6.83018C3.65499 7.61018 2.86499 9.21018 2.86499 10.4702V17.3702C2.86499 19.9202 4.93499 22.0002 7.48499 22.0002H18.265C20.815 22.0002 22.885 19.9302 22.885 17.3802V10.6002C22.885 9.25018 22.015 7.59018 20.915 6.82018ZM13.625 18.0002C13.625 18.4102 13.285 18.7502 12.875 18.7502C12.465 18.7502 12.125 18.4102 12.125 18.0002V15.0002C12.125 14.5902 12.465 14.2502 12.875 14.2502C13.285 14.2502 13.625 14.5902 13.625 15.0002V18.0002Z" fill="#86898E"/>
</g>
</g>
</svg>
