<svg xmlns="http://www.w3.org/2000/svg" width="29" height="28" fill="none"><g clip-path="url(#a)"><path fill="#1877F2" d="M28.5 14c0-7.732-6.268-14-14-14S.5 6.268.5 14c0 6.988 5.12 12.78 11.813 13.83v-9.783H8.758V14h3.555v-3.084c0-3.51 2.09-5.447 5.288-5.447 1.531 0 3.133.273 3.133.273v3.446H18.97c-1.74 0-2.282 1.079-2.282 2.186V14h3.883l-.62 4.047h-3.262v9.783C23.38 26.78 28.5 20.988 28.5 14"/><path fill="#fff" d="M19.95 18.047 20.57 14h-3.883v-2.626c0-1.107.543-2.187 2.282-2.187h1.765V5.743s-1.602-.273-3.133-.273c-3.198 0-5.288 1.938-5.288 5.447V14H8.758v4.047h3.555v9.783a14.104 14.104 0 0 0 4.374 0v-9.783z"/></g><defs><clipPath id="a"><path fill="#fff" d="M.5 0h28v28H.5z"/></clipPath></defs></svg>