<svg width="21" height="21" viewBox="0 0 21 21" fill="none" xmlns="http://www.w3.org/2000/svg">
<path d="M4.19033 0C6.50455 0 8.38054 1.87603 8.38054 4.19021V14.3638C8.38054 16.678 6.5045 18.5541 4.19033 18.5541C1.87616 18.5541 0.00012207 16.678 0.00012207 14.3638V4.19021C0.00012207 1.87603 1.87611 0 4.19033 0Z" fill="#33D6F5"/>
<path d="M4.19033 18.5539C6.50455 18.5539 8.38054 16.6778 8.38054 14.3637V9.27686H0.00012207V14.3637C0.00012207 16.6778 1.87611 18.5539 4.19033 18.5539Z" fill="#FF7D97"/>
<path d="M5.97791 19.6131C4.34151 17.9767 4.34151 15.3236 5.97791 13.6872L13.1718 6.49338C14.8082 4.85702 17.4612 4.85702 19.0976 6.49338C20.734 8.12978 20.734 10.7828 19.0976 12.4192L11.9038 19.6131C10.2674 21.2494 7.61431 21.2494 5.97791 19.6131Z" fill="#89DF8F"/>
<path d="M19.0976 6.49341C17.4612 4.85701 14.8082 4.85701 13.1718 6.49341L9.57483 10.0903L15.5007 16.0162L19.0976 12.4193C20.734 10.7829 20.734 8.12981 19.0976 6.49341Z" fill="#FFCD69"/>
</svg>
