<svg xmlns="http://www.w3.org/2000/svg" width="25" height="24" fill="none"><mask id="a" width="25" height="24" x="0" y="0" maskUnits="userSpaceOnUse" style="mask-type:alpha"><path fill="#D9D9D9" d="M.5 0h24v24H.5z"/></mask><g mask="url(#a)"><path fill="#328C3C" d="M6.5 20c-.55 0-1.02-.196-1.412-.587A1.926 1.926 0 0 1 4.5 18c0-.55.196-1.02.588-1.413A1.926 1.926 0 0 1 6.5 16c.55 0 1.02.196 1.412.587.392.392.588.863.588 1.413s-.196 1.02-.588 1.413A1.926 1.926 0 0 1 6.5 20Zm6 0c-.55 0-1.02-.196-1.412-.587A1.926 1.926 0 0 1 10.5 18c0-.55.196-1.02.588-1.413A1.926 1.926 0 0 1 12.5 16c.55 0 1.02.196 1.412.587.392.392.588.863.588 1.413s-.196 1.02-.588 1.413A1.926 1.926 0 0 1 12.5 20Zm6 0c-.55 0-1.02-.196-1.413-.587A1.926 1.926 0 0 1 16.5 18c0-.55.196-1.02.587-1.413A1.926 1.926 0 0 1 18.5 16c.55 0 1.02.196 1.413.587.391.392.587.863.587 1.413s-.196 1.02-.587 1.413A1.926 1.926 0 0 1 18.5 20Zm-12-6c-.55 0-1.02-.196-1.412-.588A1.926 1.926 0 0 1 4.5 12c0-.55.196-1.02.588-1.412A1.926 1.926 0 0 1 6.5 10c.55 0 1.02.196 1.412.588.392.391.588.862.588 1.412 0 .55-.196 1.02-.588 1.412A1.926 1.926 0 0 1 6.5 14Zm6 0c-.55 0-1.02-.196-1.412-.588A1.926 1.926 0 0 1 10.5 12c0-.55.196-1.02.588-1.412A1.926 1.926 0 0 1 12.5 10c.55 0 1.02.196 1.412.588.392.391.588.862.588 1.412 0 .55-.196 1.02-.588 1.412A1.926 1.926 0 0 1 12.5 14Zm6 0c-.55 0-1.02-.196-1.413-.588A1.926 1.926 0 0 1 16.5 12c0-.55.196-1.02.587-1.412A1.926 1.926 0 0 1 18.5 10c.55 0 1.02.196 1.413.588.391.391.587.862.587 1.412 0 .55-.196 1.02-.587 1.412A1.926 1.926 0 0 1 18.5 14Zm-12-6c-.55 0-1.02-.196-1.412-.588A1.926 1.926 0 0 1 4.5 6c0-.55.196-1.02.588-1.412A1.926 1.926 0 0 1 6.5 4c.55 0 1.02.196 1.412.588.392.391.588.862.588 1.412 0 .55-.196 1.02-.588 1.412A1.926 1.926 0 0 1 6.5 8Zm6 0c-.55 0-1.02-.196-1.412-.588A1.926 1.926 0 0 1 10.5 6c0-.55.196-1.02.588-1.412A1.926 1.926 0 0 1 12.5 4c.55 0 1.02.196 1.412.588.392.391.588.862.588 1.412 0 .55-.196 1.02-.588 1.412A1.926 1.926 0 0 1 12.5 8Zm6 0c-.55 0-1.02-.196-1.413-.588A1.926 1.926 0 0 1 16.5 6c0-.55.196-1.02.587-1.412A1.926 1.926 0 0 1 18.5 4c.55 0 1.02.196 1.413.588.391.391.587.862.587 1.412 0 .55-.196 1.02-.587 1.412A1.926 1.926 0 0 1 18.5 8Z"/></g></svg>