<svg width="25" height="24" viewBox="0 0 25 24" fill="none" xmlns="http://www.w3.org/2000/svg">
<g id="vuesax/bold/message-text">
<g id="message-text">
<path id="Vector" d="M16.375 2H8.375C4.375 2 2.375 4 2.375 8V21C2.375 21.55 2.825 22 3.375 22H16.375C20.375 22 22.375 20 22.375 16V8C22.375 4 20.375 2 16.375 2ZM14.375 15.25H7.375C6.965 15.25 6.625 14.91 6.625 14.5C6.625 14.09 6.965 13.75 7.375 13.75H14.375C14.785 13.75 15.125 14.09 15.125 14.5C15.125 14.91 14.785 15.25 14.375 15.25ZM17.375 10.25H7.375C6.965 10.25 6.625 9.91 6.625 9.5C6.625 9.09 6.965 8.75 7.375 8.75H17.375C17.785 8.75 18.125 9.09 18.125 9.5C18.125 9.91 17.785 10.25 17.375 10.25Z" fill="#86898E"/>
</g>
</g>
</svg>
