<svg width="20" height="21" viewBox="0 0 20 21" fill="none" xmlns="http://www.w3.org/2000/svg">
<path d="M8.48543 13.1879H5.06637C3.09129 13.1879 1.4845 14.7947 1.4845 16.7698V20.0261H12.8814V19.456C11.412 18.0985 9.46768 15.8717 9.46768 13.5896C9.46768 13.3533 9.49976 13.1251 9.5543 12.9054C9.36215 12.8768 9.16815 12.8624 8.97387 12.8623H8.81106C8.81106 12.9487 8.77675 13.0315 8.71569 13.0926C8.65462 13.1536 8.57179 13.1879 8.48543 13.1879Z" fill="#7BBDFF"/>
<path d="M1.15888 20.3516C1.24524 20.3516 1.32806 20.3173 1.38913 20.2562C1.4502 20.1952 1.4845 20.1124 1.4845 20.026V16.7697C1.4845 14.7947 3.0913 13.1879 5.06638 13.1879H8.48544C8.5718 13.1879 8.65462 13.1536 8.71569 13.0925C8.77676 13.0314 8.81106 12.9486 8.81106 12.8622C8.81106 12.7759 8.77676 12.6931 8.71569 12.632C8.65462 12.5709 8.5718 12.5366 8.48544 12.5366H5.06638C2.73213 12.5366 0.833252 14.4355 0.833252 16.7697V20.026C0.833252 20.1124 0.867559 20.1952 0.928625 20.2562C0.989692 20.3173 1.07252 20.3516 1.15888 20.3516Z" fill="#3E5F80"/>
<path d="M5.28445 3.48102C4.74937 3.73285 4.27568 4.09841 3.89645 4.55219C3.51722 5.00597 3.24158 5.53703 3.08876 6.10833C3.07024 6.17758 3.02937 6.23879 2.97248 6.28242C2.9156 6.32606 2.8459 6.34968 2.7742 6.34961H2.46128C2.01241 6.34961 1.64722 6.7148 1.64722 7.16368C1.64722 7.61255 2.01241 7.97774 2.46128 7.97774H2.7742C2.84588 7.97773 2.91556 8.00137 2.97243 8.045C3.0293 8.08862 3.07019 8.1498 3.08876 8.21903C3.56417 9.99417 5.18074 11.234 7.02003 11.234C8.85932 11.234 10.4761 9.99433 10.9513 8.21903C10.9698 8.14977 11.0107 8.08856 11.0676 8.04493C11.1245 8.0013 11.1942 7.97767 11.2659 7.97774H11.5788C12.0277 7.97774 12.3928 7.61255 12.3928 7.16368C12.3928 6.7148 12.0277 6.34961 11.5788 6.34961H11.2659C11.1942 6.34962 11.1245 6.32598 11.0676 6.28235C11.0108 6.23873 10.9699 6.17756 10.9513 6.10833C10.7779 5.45701 10.4449 4.85917 9.98246 4.36882C9.52003 3.87848 8.94271 3.51107 8.30267 3.29981C8.22302 3.27326 8.15674 3.21692 8.11771 3.1426C8.07868 3.06827 8.06993 2.98172 8.09329 2.90108C7.78924 2.82579 7.47803 2.78316 7.16493 2.77393C7.28069 2.99079 7.34549 3.23045 7.34549 3.47825C7.34549 3.56461 7.31118 3.64744 7.25012 3.7085C7.18905 3.76957 7.10623 3.80388 7.01987 3.80388C6.93351 3.80388 6.85068 3.76957 6.78961 3.7085C6.72855 3.64744 6.69424 3.56461 6.69424 3.47825C6.69424 3.23159 6.5793 2.99486 6.38262 2.81691C6.06188 2.86357 5.74734 2.94581 5.44482 3.0621C5.47713 3.13915 5.47849 3.22569 5.44862 3.30371C5.41875 3.38174 5.35995 3.44524 5.28445 3.48102ZM7.183 7.65211C8.1817 7.65211 9.07944 8.31948 9.36632 9.27503C9.39115 9.35776 9.38209 9.44697 9.34115 9.52303C9.3002 9.59909 9.23072 9.65577 9.14799 9.68059C9.06525 9.70542 8.97605 9.69637 8.89999 9.65542C8.82393 9.61448 8.76725 9.545 8.74242 9.46226C8.5376 8.77991 7.89645 8.30336 7.183 8.30336C6.46956 8.30336 5.82824 8.77991 5.62326 9.46226C5.59834 9.54489 5.54166 9.61426 5.46566 9.65516C5.38966 9.69606 5.30055 9.70515 5.21786 9.68043C5.17691 9.66815 5.13878 9.64791 5.10565 9.62089C5.07252 9.59386 5.04504 9.56058 5.02478 9.52293C5.00452 9.48528 4.99188 9.44401 4.98757 9.40148C4.98327 9.35894 4.98738 9.31597 4.99969 9.27503C5.2864 8.31948 6.18431 7.65211 7.183 7.65211Z" fill="white"/>
<path d="M5.21774 9.68051C5.30043 9.70522 5.38955 9.69613 5.46554 9.65524C5.54154 9.61434 5.59822 9.54497 5.62314 9.46234C5.82812 8.77999 6.46944 8.30344 7.18289 8.30344C7.89633 8.30344 8.53749 8.77999 8.7423 9.46234C8.7687 9.54318 8.82567 9.6105 8.90103 9.64991C8.9764 9.68932 9.06419 9.6977 9.14564 9.67325C9.2271 9.6488 9.29577 9.59347 9.33698 9.51908C9.37819 9.44469 9.38868 9.35713 9.3662 9.27511C9.07933 8.31956 8.18158 7.65219 7.18289 7.65219C6.18419 7.65219 5.28645 8.31956 4.99957 9.27511C4.97477 9.3578 4.98381 9.44695 5.02473 9.52297C5.06564 9.599 5.13506 9.65566 5.21774 9.68051ZM6.69461 3.47817C6.69461 3.56453 6.72892 3.64735 6.78998 3.70842C6.85105 3.76948 6.93387 3.80379 7.02024 3.80379C7.1066 3.80379 7.18942 3.76948 7.25049 3.70842C7.31155 3.64735 7.34586 3.56453 7.34586 3.47817C7.34586 3.23037 7.28106 2.99071 7.1653 2.77384C7.02882 2.52044 6.82902 2.30673 6.58536 2.15352C6.46731 2.07933 6.37041 1.97592 6.30404 1.8533C6.23766 1.73068 6.20407 1.593 6.2065 1.45359C6.21236 1.02458 6.57983 0.657113 7.00884 0.651252L7.02056 0.651089C7.23454 0.650555 7.44001 0.734794 7.59203 0.885377C7.66909 0.960949 7.73023 1.05118 7.77187 1.15075C7.8135 1.25033 7.83479 1.35723 7.83446 1.46515C7.83446 1.55151 7.86877 1.63434 7.92983 1.6954C7.9909 1.75647 8.07373 1.79078 8.16009 1.79078C8.24645 1.79078 8.32927 1.75647 8.39034 1.6954C8.4514 1.63434 8.48571 1.55151 8.48571 1.46515C8.48631 1.27091 8.44799 1.07852 8.37302 0.899336C8.29805 0.720148 8.18795 0.557792 8.04921 0.421849C7.76771 0.144417 7.40171 -0.000649067 6.99956 2.18311e-06C6.21415 0.0109106 5.56616 0.658904 5.55525 1.44447C5.55085 1.69527 5.61129 1.94295 5.73072 2.16353C5.85015 2.38411 6.02452 2.57011 6.23695 2.7035C6.29035 2.73737 6.33821 2.77596 6.38331 2.81666C6.57967 2.99494 6.69461 3.2315 6.69461 3.47817Z" fill="#3E5F80"/>
<path d="M2.46145 8.62897H2.53146C3.15991 10.5585 4.97088 11.8852 7.0202 11.8852C9.06952 11.8852 10.8805 10.5585 11.5089 8.62897H11.5789C12.387 8.62897 13.0443 7.9717 13.0443 7.16366C13.0443 6.35562 12.387 5.69835 11.5789 5.69835H11.5091C11.281 4.99512 10.8904 4.35553 10.369 3.83141C9.84756 3.30729 9.21001 2.91337 8.50798 2.68159C8.46739 2.66813 8.42454 2.6628 8.38189 2.66589C8.33923 2.66899 8.29761 2.68046 8.25939 2.69965C8.22117 2.71883 8.1871 2.74536 8.15913 2.77771C8.13117 2.81006 8.10984 2.84761 8.09639 2.8882C8.09492 2.89244 8.09476 2.89683 8.09346 2.90107C8.07014 2.9817 8.07891 3.06823 8.11793 3.14255C8.15696 3.21687 8.22321 3.27321 8.30283 3.29979C8.94288 3.51106 9.5202 3.87846 9.98263 4.36881C10.4451 4.85916 10.778 5.45699 10.9515 6.10831C10.97 6.17757 11.0109 6.23877 11.0677 6.28241C11.1246 6.32604 11.1943 6.34966 11.266 6.3496H11.5789C12.0278 6.3496 12.393 6.71479 12.393 7.16366C12.393 7.61253 12.0278 7.97772 11.5789 7.97772H11.266C11.1943 7.97771 11.1247 8.00135 11.0678 8.04498C11.0109 8.08861 10.97 8.14978 10.9515 8.21901C10.4761 9.99415 8.85949 11.234 7.0202 11.234C5.1809 11.234 3.56418 9.99432 3.08876 8.21901C3.07025 8.14975 3.02937 8.08855 2.97249 8.04491C2.91561 8.00128 2.8459 7.97766 2.77421 7.97772H2.46128C2.01241 7.97772 1.64722 7.61253 1.64722 7.16366C1.64722 6.71479 2.01241 6.3496 2.46128 6.3496H2.77421C2.84589 6.34961 2.91557 6.32596 2.97244 6.28234C3.02931 6.23871 3.0702 6.17754 3.08876 6.10831C3.24164 5.53704 3.5173 5.006 3.89652 4.55223C4.27575 4.09846 4.7494 3.73288 5.28445 3.481C5.35993 3.44519 5.41871 3.3817 5.4486 3.30369C5.47849 3.22568 5.4772 3.13916 5.44499 3.06209C5.44287 3.0572 5.44206 3.05216 5.43978 3.04743C5.40279 2.96943 5.33637 2.90927 5.2551 2.88015C5.17382 2.85104 5.08432 2.85534 5.00621 2.89211C4.42404 3.16626 3.90414 3.55665 3.47851 4.03926C3.05289 4.52187 2.73053 5.08648 2.53129 5.69835H2.46128C1.65325 5.69835 0.995972 6.35562 0.995972 7.16366C0.995972 7.9717 1.65341 8.62897 2.46145 8.62897Z" fill="#3E5F80"/>
<path d="M14.1339 15.6296H16.1376C16.1889 15.6297 16.2395 15.6418 16.2851 15.6651C16.3308 15.6884 16.3704 15.7221 16.4006 15.7636C16.4308 15.805 16.4508 15.853 16.459 15.9036C16.4671 15.9542 16.4633 16.006 16.4476 16.0549L15.3091 19.597C16.6674 18.4568 19.2257 15.9909 19.2257 13.5891C19.2257 12.38 18.2422 11.3965 17.0331 11.3965C16.1223 11.3965 15.2982 11.971 14.9804 12.8265L14.1339 15.6296Z" fill="#FF795F"/>
<path d="M10.1189 13.5892C10.1189 16.3092 13.3994 19.1115 14.5028 19.977L15.6908 16.281H13.6954C13.6446 16.281 13.5945 16.269 13.5491 16.2462C13.5037 16.2233 13.4643 16.1902 13.434 16.1494C13.4037 16.1086 13.3834 16.0613 13.3747 16.0112C13.3659 15.9612 13.369 15.9098 13.3836 15.8611L14.3269 12.7363C13.9859 11.9313 13.1895 11.3965 12.3115 11.3965C11.1024 11.3966 10.1189 12.3802 10.1189 13.5892Z" fill="#FF795F"/>
<path d="M12.8813 19.4557C13.7229 20.2333 14.4093 20.7267 14.4839 20.7797C14.4865 20.7815 14.4896 20.7822 14.4922 20.7838C14.5168 20.8003 14.543 20.8147 14.5726 20.8242L14.5738 20.8244C14.5936 20.8307 14.6143 20.8317 14.6348 20.834C14.6474 20.8354 14.6599 20.8398 14.6723 20.8398C14.683 20.8398 14.693 20.8359 14.7037 20.8348C14.7263 20.8325 14.7491 20.831 14.7711 20.824C14.7937 20.8169 14.8141 20.8043 14.8344 20.7924C14.8431 20.7874 14.8525 20.7851 14.8608 20.7794L14.8618 20.7786L14.8628 20.7779C15.0853 20.6199 19.8769 17.1712 19.8769 13.589C19.8769 12.0209 18.6011 10.7451 17.0331 10.7451C16.076 10.7451 15.1926 11.2336 14.6723 12.0087C14.1519 11.2336 13.2685 10.7451 12.3115 10.7451C10.9797 10.7451 9.86182 11.6668 9.55427 12.9048C9.49762 13.1285 9.46854 13.3582 9.46765 13.589C9.46765 15.8714 11.412 18.0982 12.8813 19.4557ZM12.3115 11.3967C13.1897 11.3967 13.986 11.9315 14.327 12.7365L13.3836 15.8613C13.3689 15.91 13.3658 15.9614 13.3745 16.0115C13.3832 16.0616 13.4036 16.1089 13.4339 16.1497C13.4642 16.1905 13.5036 16.2237 13.549 16.2465C13.5944 16.2694 13.6446 16.2812 13.6954 16.2812H15.691L14.503 19.9772C13.3996 19.1117 10.1191 16.3092 10.1191 13.5895C10.1189 12.3802 11.1025 11.3967 12.3115 11.3967ZM17.0331 11.3967C18.2421 11.3967 19.2257 12.3802 19.2257 13.5893C19.2257 15.9911 16.6675 18.4571 15.309 19.5972L16.4476 16.0551C16.4632 16.0062 16.467 15.9544 16.4588 15.9038C16.4506 15.8532 16.4306 15.8053 16.4004 15.7638C16.3702 15.7224 16.3307 15.6887 16.285 15.6654C16.2394 15.6421 16.1889 15.6299 16.1376 15.6298H14.1339L14.9802 12.8267C15.2981 11.9713 16.1223 11.3967 17.0331 11.3967Z" fill="#3E5F80"/>
</svg>
