<svg width="21" height="21" viewBox="0 0 21 21" fill="none" xmlns="http://www.w3.org/2000/svg">
<path d="M11.9587 17.6258C7.59126 16.5503 4.91189 12.099 6.00579 7.73928C6.83756 4.42429 9.59866 2.09293 12.7988 1.6524C13.3748 1.57311 13.42 0.761124 12.8556 0.621593C12.8225 0.613412 12.7893 0.605394 12.7561 0.597538C7.35986 -0.679892 1.90824 2.66774 0.60903 8.05485C-0.695915 13.4659 2.63007 18.913 8.04514 20.2271C11.081 20.9638 14.1295 20.245 16.4557 18.5185C16.9225 18.172 16.566 17.44 16.0042 17.5899C14.7225 17.9321 13.3387 17.9656 11.9587 17.6258Z" fill="#F7CF77"/>
<path d="M16.4556 17.7859C14.1295 19.5124 11.081 20.2311 8.04507 19.4945C3.54855 18.4033 0.492877 14.4623 0.332588 10.0586C0.159884 14.7514 3.30046 19.0757 8.04503 20.2271C11.0809 20.9638 14.1294 20.245 16.4556 18.5186C16.7458 18.3032 16.7177 17.9388 16.52 17.7299C16.5004 17.7494 16.4793 17.7683 16.4556 17.7859Z" fill="#F4C260"/>
<path d="M13.7264 4.83901H12.774C12.3735 4.83901 12.0488 4.51436 12.0488 4.11384C12.0488 3.71336 12.3735 3.38867 12.774 3.38867H13.7264C14.1268 3.38867 14.4515 3.71332 14.4515 4.11384C14.4515 4.51432 14.1269 4.83901 13.7264 4.83901Z" fill="#FF748F"/>
<path d="M13.7264 4.1064H12.774C12.5073 4.1064 12.2749 3.96202 12.1489 3.74756C12.0834 3.85853 12.0488 3.98503 12.0488 4.11389C12.0488 4.51437 12.3735 4.83906 12.774 4.83906H13.7264C14.1268 4.83906 14.4515 4.51441 14.4515 4.11389C14.4515 3.9801 14.4147 3.85518 14.3514 3.74756C14.2255 3.96198 13.9931 4.1064 13.7264 4.1064Z" fill="#FF577F"/>
<path d="M15.6589 6.44095C15.4307 4.83174 13.7258 4.83887 13.7258 4.83887H12.7745C12.7745 4.83887 11.0697 4.83174 10.8414 6.44095H15.6589Z" fill="#E8587B"/>
<path d="M11.097 5.7085C10.9752 5.90501 10.8834 6.14577 10.8416 6.44115H15.659C15.6171 6.14577 15.5254 5.90501 15.4036 5.7085H11.097Z" fill="#DD4772"/>
<path d="M15.6595 7.89125H10.8409C10.4404 7.89125 10.1157 7.56661 10.1157 7.16609C10.1157 6.76561 10.4404 6.44092 10.8409 6.44092H15.6595C16.0599 6.44092 16.3846 6.76557 16.3846 7.16609C16.3847 7.56661 16.06 7.89125 15.6595 7.89125Z" fill="#FF748F"/>
<path d="M15.6595 7.15864H10.8409C10.5742 7.15864 10.3418 7.01427 10.2158 6.7998C10.1503 6.91077 10.1157 7.03727 10.1157 7.16613C10.1157 7.56661 10.4404 7.8913 10.8409 7.8913H15.6595C16.0599 7.8913 16.3846 7.56665 16.3846 7.16613C16.3846 7.03234 16.3477 6.90742 16.2845 6.7998C16.1586 7.01427 15.9262 7.15864 15.6595 7.15864Z" fill="#FF577F"/>
<path d="M15.6589 11.939H10.8414C10.4406 11.939 10.1157 12.2636 10.1157 12.6641C10.1157 13.0646 10.4406 13.3893 10.8414 13.3893H15.6589C16.0597 13.3893 16.3846 13.0647 16.3846 12.6641C16.3846 12.2637 16.0597 11.939 15.6589 11.939Z" fill="#FF748F"/>
<path d="M15.6589 12.6567H10.8414C10.5745 12.6567 10.342 12.5123 10.2159 12.2979C10.1503 12.4088 10.1157 12.5353 10.1157 12.6642C10.1157 13.0647 10.4406 13.3893 10.8414 13.3893H15.6589C16.0597 13.3893 16.3846 13.0647 16.3846 12.6642C16.3846 12.5304 16.3477 12.4054 16.2844 12.2979C16.1584 12.5123 15.9258 12.6567 15.6589 12.6567Z" fill="#FF577F"/>
<path d="M15.6589 13.3896C15.2865 14.9988 13.7258 14.9918 13.7258 14.9918H12.7745C12.7745 14.9918 11.2139 14.9989 10.8414 13.3896H15.6589Z" fill="#E8587B"/>
<path d="M15.3507 14.1223C15.4821 13.9258 15.5906 13.685 15.659 13.3896H10.8416C10.9099 13.685 11.0184 13.9258 11.1499 14.1223H15.3507Z" fill="#DD4772"/>
<path d="M10.8416 7.89111H15.659V11.9389H10.8416V8.03211" fill="#F7CF77"/>
<path d="M10.8416 7.89111V8.62377H15.659V7.89111H10.8416Z" fill="#F4C260"/>
<path d="M12.422 7.89111H14.0786V11.9389H12.422V8.03211V7.89111Z" fill="#F9F097"/>
<path d="M12.422 7.89111V8.62377H14.0786V7.89111H12.422Z" fill="#F2E586"/>
<path d="M19.2738 8.74042L19.4756 9.14888C19.5018 9.20193 19.5405 9.24781 19.5884 9.28257C19.6363 9.31733 19.6919 9.33992 19.7504 9.34841L20.2016 9.4139C20.501 9.45737 20.6205 9.82504 20.4038 10.036L20.0774 10.354C20.035 10.3952 20.0033 10.4462 19.985 10.5024C19.9668 10.5587 19.9624 10.6185 19.9724 10.6768L20.0495 11.1258C20.1007 11.4238 19.7876 11.651 19.5199 11.5103L19.1164 11.2983C19.064 11.2708 19.0057 11.2564 18.9465 11.2564C18.8873 11.2564 18.829 11.2708 18.7767 11.2983L18.3732 11.5103C18.1054 11.651 17.7924 11.4238 17.8435 11.1258L17.9206 10.6768C17.9306 10.6185 17.9263 10.5587 17.908 10.5024C17.8897 10.4462 17.858 10.3952 17.8156 10.354L17.4892 10.036C17.2725 9.82504 17.3921 9.45737 17.6915 9.4139L18.1426 9.34841C18.2011 9.33992 18.2567 9.31732 18.3046 9.28256C18.3525 9.2478 18.3912 9.20192 18.4174 9.14888L18.6192 8.74042C18.753 8.46934 19.1399 8.46934 19.2738 8.74042Z" fill="#F9F097"/>
<path d="M20.0362 11.0491L19.1163 10.5658C19.0639 10.5383 19.0056 10.5239 18.9464 10.5239C18.8872 10.5239 18.8289 10.5383 18.7766 10.5658L17.8566 11.0491L17.8434 11.126C17.7923 11.4239 18.1053 11.6512 18.3731 11.5105L18.7766 11.2985C18.8289 11.271 18.8872 11.2566 18.9464 11.2566C19.0056 11.2566 19.0639 11.271 19.1163 11.2985L19.5198 11.5105C19.7875 11.6512 20.1005 11.4239 20.0494 11.126L20.0362 11.0491Z" fill="#F2E586"/>
<path d="M8.57134 8.67925L8.73802 9.01676C8.75967 9.06059 8.79166 9.09849 8.83122 9.12721C8.87078 9.15593 8.91672 9.1746 8.9651 9.18161L9.33782 9.23575C9.58521 9.27165 9.684 9.57546 9.50499 9.74979L9.23529 10.0125C9.20027 10.0466 9.17408 10.0887 9.15897 10.1352C9.14386 10.1816 9.14028 10.2311 9.14855 10.2793L9.21221 10.6502C9.25446 10.8964 8.99587 11.0841 8.77461 10.9679L8.44125 10.7927C8.39796 10.77 8.3498 10.7581 8.30091 10.7581C8.25201 10.7581 8.20385 10.77 8.16056 10.7927L7.82716 10.9679C7.6059 11.0841 7.34731 10.8964 7.38956 10.6502L7.45322 10.2793C7.46148 10.2311 7.4579 10.1816 7.44279 10.1352C7.42768 10.0887 7.40149 10.0466 7.36648 10.0125L7.09678 9.74979C6.91777 9.57542 7.01656 9.27165 7.26395 9.23575L7.63667 9.18161C7.68505 9.1746 7.73099 9.15593 7.77055 9.12721C7.81011 9.09849 7.8421 9.06059 7.86375 9.01676L8.03043 8.67925C8.14106 8.45522 8.46071 8.45522 8.57134 8.67925Z" fill="#F9F097"/>
<path d="M9.17735 10.4467L8.44127 10.06C8.39799 10.0373 8.34982 10.0254 8.30093 10.0254C8.25203 10.0254 8.20387 10.0373 8.16058 10.06L7.42451 10.4467L7.38958 10.6501C7.34733 10.8963 7.60592 11.084 7.82718 10.9678L8.16058 10.7926C8.20387 10.7699 8.25203 10.758 8.30093 10.758C8.34982 10.758 8.39799 10.7699 8.44127 10.7926L8.77463 10.9678C8.9959 11.084 9.25452 10.8963 9.21223 10.6501L9.17735 10.4467Z" fill="#F2E586"/>
<path d="M17.9991 1.7181L18.1709 2.06599C18.1932 2.11117 18.2262 2.15025 18.267 2.17985C18.3077 2.20946 18.3551 2.2287 18.405 2.23593L18.7892 2.29173C19.0442 2.32877 19.1461 2.6419 18.9615 2.82165L18.6835 3.09245C18.6474 3.12759 18.6204 3.17099 18.6048 3.2189C18.5892 3.26681 18.5855 3.31779 18.594 3.36744L18.6597 3.7498C18.7033 4.00359 18.4367 4.19713 18.2086 4.0773L17.8649 3.89678C17.8203 3.87334 17.7707 3.8611 17.7203 3.8611C17.6698 3.8611 17.6202 3.87334 17.5756 3.89678L17.2319 4.0773C17.0038 4.19713 16.7372 4.00359 16.7808 3.7498L16.8465 3.36744C16.855 3.31779 16.8513 3.26681 16.8357 3.2189C16.8201 3.17099 16.7931 3.12759 16.757 3.09245L16.479 2.82165C16.2945 2.6419 16.3963 2.32877 16.6513 2.29173L17.0355 2.23593C17.0854 2.2287 17.1328 2.20945 17.1735 2.17985C17.2143 2.15025 17.2473 2.11117 17.2696 2.06599L17.4415 1.7181C17.5555 1.48719 17.885 1.48719 17.9991 1.7181Z" fill="#F9F097"/>
<path d="M18.628 3.56544L17.865 3.16459C17.8203 3.14115 17.7707 3.12891 17.7203 3.12891C17.6699 3.12891 17.6202 3.14115 17.5756 3.16459L16.8125 3.56544L16.7808 3.75031C16.7373 4.00409 17.0039 4.19764 17.232 4.07781L17.5756 3.89729C17.6202 3.87385 17.6699 3.8616 17.7203 3.8616C17.7707 3.8616 17.8203 3.87385 17.865 3.89729L18.2086 4.07781C18.4367 4.19764 18.7033 4.00409 18.6597 3.75031L18.628 3.56544Z" fill="#F2E586"/>
</svg>
