<svg width="17" height="21" viewBox="0 0 17 21" fill="none" xmlns="http://www.w3.org/2000/svg">
<path d="M8.44996 20.5111C8.39937 20.5111 8.34889 20.5107 8.2985 20.5099C2.0798 20.405 -1.47454 13.3672 2.06568 8.26418L7.07012 1.05057C7.22478 0.827845 7.43107 0.645885 7.67137 0.520245C7.91166 0.394605 8.1788 0.329022 8.44996 0.329102C8.72112 0.329022 8.98826 0.394605 9.22855 0.520245C9.46885 0.645885 9.67514 0.827845 9.8298 1.05057L14.8343 8.26414C18.3745 13.3672 14.8201 20.405 8.60146 20.5098C8.55096 20.5107 8.50046 20.5111 8.44996 20.5111Z" fill="#97DBFF"/>
<path d="M9.83195 20.3948C9.42531 20.4647 9.01388 20.5032 8.60133 20.5098C8.49072 20.5117 8.38008 20.5115 8.26947 20.5093C2.06416 20.3842 -1.46722 13.3565 2.06559 8.26414L7.07007 1.05057C7.22632 0.825558 7.43525 0.642185 7.67863 0.516446C7.92201 0.390706 8.19246 0.326418 8.4664 0.329187C9.25348 0.336921 9.70602 1.22906 9.25824 1.87506L4.82971 8.26414C1.53034 13.02 4.39325 19.4562 9.83195 20.3948Z" fill="#55C2EB"/>
<path d="M12.8345 15.6849C12.8345 16.4119 12.244 17.0012 11.5155 17.0012C10.7871 17.0012 10.1965 16.4119 10.1965 15.6849C10.1965 14.958 10.787 14.3687 11.5155 14.3687C12.244 14.3687 12.8345 14.958 12.8345 15.6849ZM13.2742 11.7363C12.7886 11.7363 12.3949 12.1292 12.3949 12.6138C12.3949 13.0984 12.7886 13.4913 13.2742 13.4913C13.7598 13.4913 14.1535 13.0985 14.1535 12.6138C14.1535 12.1292 13.7598 11.7363 13.2742 11.7363Z" fill="#B8F4FF"/>
</svg>
