<svg width="22" height="21" viewBox="0 0 22 21" fill="none" xmlns="http://www.w3.org/2000/svg">
<mask id="mask0_604_1273" style="mask-type:luminance" maskUnits="userSpaceOnUse" x="0" y="0" width="22" height="21">
<path d="M0.666748 -0.000156403H21.5067V20.8398H0.666748V-0.000156403Z" fill="white"/>
</mask>
<g mask="url(#mask0_604_1273)">
<path d="M21.2015 8.32289V19.7092C21.2015 19.9343 21.0191 20.1162 20.7945 20.1162H1.37908C1.1544 20.1162 0.972046 19.9343 0.972046 19.7092V8.32289C0.972015 8.26228 0.985521 8.20243 1.01158 8.14771C1.03763 8.09298 1.07558 8.04477 1.12265 8.00659C1.19518 7.94782 1.28572 7.91578 1.37908 7.91586H20.7945C20.8917 7.91586 20.9809 7.95005 21.0509 8.00659C21.098 8.04477 21.1359 8.09298 21.162 8.14771C21.188 8.20243 21.2015 8.26228 21.2015 8.32289Z" fill="#1D7EF5"/>
<path d="M12.6062 1.64333C11.3797 0.41678 9.39108 0.41678 8.16453 1.64333L7.91803 1.88987L7.67154 1.64333C6.44499 0.41678 4.4564 0.41678 3.22985 1.64333C2.0033 2.86988 2.0033 4.85847 3.22985 6.08502L7.65599 10.5111C7.6904 10.5455 7.73125 10.5728 7.77621 10.5914C7.82117 10.61 7.86937 10.6196 7.91803 10.6196C7.9667 10.6196 8.01489 10.61 8.05985 10.5914C8.10482 10.5728 8.14567 10.5455 8.18008 10.5111L12.6062 6.08502C13.8327 4.85847 13.8327 2.86988 12.6062 1.64333Z" fill="#FF69B2"/>
<path d="M12.6061 6.08509L8.17996 10.5112C8.03543 10.6558 7.80081 10.6558 7.65591 10.5112L7.18933 10.0446L11.544 5.68966C12.7703 4.46331 12.7703 2.47464 11.544 1.24793C11.3609 1.06466 11.1559 0.904712 10.9336 0.771703C11.5462 0.879566 12.1328 1.1701 12.6061 1.64336C13.8328 2.87011 13.8328 4.85838 12.6061 6.08509Z" fill="#FE328D"/>
<path d="M18.9354 8.5327C18.9354 11.1468 16.8803 13.2808 14.2975 13.4077C14.2164 13.4115 14.1353 13.4135 14.0542 13.4136C12.8094 13.4136 11.673 12.9474 10.8109 12.1802C9.99786 11.4565 9.4281 10.4648 9.24042 9.34371C9.19565 9.0757 9.17322 8.80443 9.17334 8.5327C9.17334 6.20159 10.8074 4.25183 12.9926 3.76726C13.3412 3.6901 13.6971 3.65128 14.0542 3.6515C16.7499 3.6515 18.9354 5.83697 18.9354 8.5327Z" fill="#FFB63D"/>
<path d="M17.4952 8.53267C17.4952 10.4331 15.9546 11.9736 14.0542 11.9736C12.1539 11.9736 10.6133 10.4331 10.6133 8.53267C10.6133 6.63232 12.1539 5.09175 14.0542 5.09175C15.9546 5.09175 17.4952 6.63232 17.4952 8.53267Z" fill="#FEDE46"/>
<path d="M21.2015 8.32289V19.7092C21.2015 19.9343 21.0191 20.1162 20.7945 20.1162H1.37908C1.1544 20.1162 0.972046 19.9343 0.972046 19.7092V8.32289C0.972015 8.26228 0.985521 8.20243 1.01158 8.14771C1.03763 8.09298 1.07558 8.04477 1.12265 8.00658L11.0868 14.016L21.0509 8.00658C21.098 8.04477 21.1359 8.09298 21.162 8.14771C21.188 8.20243 21.2015 8.26228 21.2015 8.32289Z" fill="#BBDCF5"/>
<path d="M18.8445 18.2622H17.1433C16.8136 18.2622 16.5464 17.995 16.5464 17.6653C16.5464 17.3356 16.8136 17.0684 17.1433 17.0684H18.8445C19.1741 17.0684 19.4414 17.3356 19.4414 17.6653C19.4414 17.995 19.1741 18.2622 18.8445 18.2622Z" fill="#1D7EF5"/>
</g>
</svg>
